<?xml version="1.0" encoding="UTF-8" standalone="no"?> <svg xmlns="http://www.w3.org/2000/svg" viewBox="0 0 128 128"><defs><style>.cls-1{fill:#f2f2f2;}.cls-2{fill:#f7f7f7;}.cls-3{fill:#e6e6e6;}.cls-4{fill:#d2423f;}.cls-5{fill:#ffce47;}.cls-6{fill:#2175aa;}.cls-7{fill:#f47c27;}.cls-8{fill:#ba3b38;}.cls-9{fill:#1d6694;}</style></defs><title>38 Palette</title><g id="_38_Palette" data-name="38 Palette"><path class="cls-1" d="M37.68,18.18a14,14,0,0,0-6.32,22.41,36,36,0,0,1,0,46.82A14,14,0,0,0,38,109.91a48,48,0,0,0,62-46C100,32.23,68.92,8.4,37.68,18.18Z"/><path class="cls-2" d="M85.51,65A10.26,10.26,0,1,1,75.26,54.74,10.26,10.26,0,0,1,85.51,65ZM56.93,27.78A10.26,10.26,0,1,0,67.19,38,10.26,10.26,0,0,0,56.93,27.78Zm0,53.93A10.26,10.26,0,1,0,67.19,92,10.26,10.26,0,0,0,56.93,81.71Z"/><path class="cls-2" d="M38.11,18.91A48,48,0,0,1,93.6,40.16a48,48,0,0,0-55.91-22,14,14,0,0,0-7.57,20.71A14,14,0,0,1,38.11,18.91Z"/><path class="cls-2" d="M31.79,88.13a36,36,0,0,0,3.45-42,36,36,0,0,1-3.88,41.32A13.91,13.91,0,0,0,30.18,104,13.89,13.89,0,0,1,31.79,88.13Z"/><path class="cls-3" d="M84.46,28.75c32.92,35.62-2.18,92.8-49.2,78.43a14.15,14.15,0,0,1-4.42-2.25,14,14,0,0,0,7.15,5C87.06,124.91,121.6,63,84.46,28.75Z"/><circle class="cls-4" cx="74.26" cy="64" r="10.26"/><circle class="cls-5" cx="55.93" cy="37.04" r="10.26"/><circle class="cls-6" cx="55.93" cy="90.96" r="10.26"/><path class="cls-7" d="M49.21,44.76A10.25,10.25,0,0,1,63.66,30.31,10.25,10.25,0,1,0,49.21,44.76Z"/><path class="cls-8" d="M67.53,71.73A10.25,10.25,0,0,1,82,57.27,10.25,10.25,0,1,0,67.53,71.73Z"/><path class="cls-9" d="M46.68,92a10.26,10.26,0,0,1,17-7.73A10.25,10.25,0,1,0,49.21,98.69,10.21,10.21,0,0,1,46.68,92Z"/></g></svg>