<?xml version="1.0" encoding="UTF-8" standalone="no"?> <svg xmlns="http://www.w3.org/2000/svg" viewBox="0 0 128 128"><defs><style>.cls-1{fill:#6d5c49;}.cls-2{fill:#a28b6d;}.cls-3{fill:#594e43;}.cls-4{fill:#d6b990;}.cls-5{fill:#e7d1b0;}.cls-6{fill:#efd3b6;}.cls-7{fill:#f7e9da;}.cls-8{fill:#e8bc91;}</style></defs><title>03 Brush</title><g id="_03_Brush" data-name="03 Brush"><path class="cls-1" d="M108.6,19.4a11.62,11.62,0,0,0-16.43,0l-65,65,16.43,16.43,65-65A11.62,11.62,0,0,0,108.6,19.4Z"/><path class="cls-2" d="M29.54,84.43C100,14,95.93,16.65,101.59,16.07a11.59,11.59,0,0,0-9.42,3.34l-65,65,16.43,16.43,1.2-1.2Z"/><path class="cls-3" d="M110.14,21.32a11.59,11.59,0,0,1-3.24,10.1L78.34,60a2.33,2.33,0,0,1-3.44-.14,26.37,26.37,0,0,0-12.53-8.24c5.78,5.57,3,2.93,12.49,11.87l-33,33L28.49,83.08l-1.36,1.36,16.43,16.43,65-65A11.62,11.62,0,0,0,110.14,21.32Z"/><path class="cls-4" d="M77,67.39A25.36,25.36,0,0,0,60.61,51L31.92,79.65,48.35,96.08Z"/><path class="cls-5" d="M60.61,51,31.92,79.65l1.2,1.2L62.37,51.61C61.79,51.37,61.21,51.15,60.61,51Z"/><path class="cls-2" d="M75.22,63.11l-6.45,6.45a2.26,2.26,0,0,1-3.45-.34c-4.55-6.41-13.1-7.47-13.1-7.47L64,74.35,45.3,93l3,3L77,67.39A25.73,25.73,0,0,0,75.22,63.11Z"/><path class="cls-6" d="M59.31,101.48C69.28,91.52,70,76.09,61,67s-24.48-8.31-34.44,1.65c-8.43,8.43-10.18,33.62-10.51,41.2a2,2,0,0,0,2.1,2.1C25.69,111.66,50.88,109.91,59.31,101.48Z"/><path class="cls-6" d="M50.11,92.28C60.07,82.32,64.93,71,61,67s-15.28.89-25.24,10.85c-8.58,8.58-17,27.7-19.24,32.87a.58.58,0,0,0,.76.76C22.41,109.33,41.53,100.86,50.11,92.28Z"/><path class="cls-7" d="M28.52,69.69c7.85-7.85,19.07-10,27.91-6.11C47.34,58.43,35,60.24,26.52,68.69S16.34,102.32,16,109.89a2,2,0,0,0,2.27,2.1C17.55,110.73,19.27,78.94,28.52,69.69Z"/><path class="cls-8" d="M57.15,64c8.57,9.11,7.69,24.17-2.1,34-9.56,9.56-36.47,14.38-38.57,13.29a2,2,0,0,0,1.63.72c7.58-.34,32.77-2.08,41.2-10.51C70.76,90,69.76,71.86,57.15,64Z"/></g></svg>