<?xml version="1.0" encoding="UTF-8" standalone="no"?> <svg width="64" height="64" viewBox="0 0 64 64" fill="none" xmlns="http://www.w3.org/2000/svg">
<path d="M47.71 57.94H25.44L30.52 52.86C30.6126 52.7665 30.686 52.6557 30.7357 52.5339C30.7855 52.412 30.8107 52.2816 30.81 52.15C30.8088 51.8876 30.7047 51.6362 30.52 51.45L12.52 33.45C12.3326 33.2637 12.0791 33.1592 11.815 33.1592C11.5508 33.1592 11.2973 33.2637 11.11 33.45L4.34995 40.27C4.25727 40.3634 4.18395 40.4742 4.13418 40.5961C4.08442 40.7179 4.05919 40.8484 4.05995 40.98C4.06106 41.2423 4.16521 41.4937 4.34995 41.68L22.35 59.68C22.4472 59.7683 22.5588 59.8393 22.68 59.89C22.8002 59.9412 22.9293 59.9684 23.06 59.97H47.71C47.9752 59.97 48.2295 59.8646 48.4171 59.6771C48.6046 59.4895 48.71 59.2352 48.71 58.97C48.71 58.7048 48.6046 58.4504 48.4171 58.2629C48.2295 58.0753 47.9752 57.97 47.71 57.97V57.94Z" fill="#E6E6E6"/>
<path d="M58.68 22.8401L41.16 5.32006C40.3485 4.51217 39.2501 4.05859 38.105 4.05859C36.9599 4.05859 35.8615 4.51217 35.05 5.32006L11.36 29.0001C10.5521 29.8115 10.0985 30.91 10.0985 32.0551C10.0985 33.2001 10.5521 34.2986 11.36 35.1101L28.88 52.6401C29.6915 53.448 30.7899 53.9015 31.935 53.9015C33.0801 53.9015 34.1785 53.448 34.99 52.6401L58.68 29.0001C59.0875 28.5973 59.4111 28.1177 59.632 27.589C59.8528 27.0603 59.9665 26.493 59.9665 25.9201C59.9665 25.3471 59.8528 24.7798 59.632 24.2511C59.4111 23.7224 59.0875 23.2428 58.68 22.8401Z" fill="#F0454E"/>
</svg>
