<svg id="icons" xmlns="http://www.w3.org/2000/svg" viewBox="0 0 48 48"><title>draw-inside-mode</title><g id="draw-inside-mode-circle-square"><path d="M18,18H34A16,16,0,0,1,18,34Z" fill="#b1bfc9"/><path d="M34,18H18V34A16,16,0,1,1,34,18Z" fill="#fc3768"/><path d="M18,35A17,17,0,1,1,35,18,17,17,0,0,1,18,35ZM18,3A15,15,0,1,0,33,18,15,15,0,0,0,18,3Z" fill="#252b33"/><path d="M18,35a1,1,0,0,1-1-1V18a1,1,0,0,1,1-1H34a1,1,0,0,1,0,2H19V34A1,1,0,0,1,18,35Z" fill="#252b33"/><path d="M46,47H42a1,1,0,0,1,0-2h4a1,1,0,0,1,0,2Zm-8,0H34a1,1,0,0,1,0-2h4a1,1,0,0,1,0,2Zm-8,0H26a1,1,0,0,1,0-2h4a1,1,0,0,1,0,2Zm-8,0H18a1,1,0,0,1,0-2h4a1,1,0,0,1,0,2Zm24-4a1,1,0,0,1-1-1V38a1,1,0,0,1,2,0v4A1,1,0,0,1,46,43ZM18,43a1,1,0,0,1-1-1V38a1,1,0,0,1,2,0v4A1,1,0,0,1,18,43Zm28-8a1,1,0,0,1-1-1V30a1,1,0,0,1,2,0v4A1,1,0,0,1,46,35Zm0-8a1,1,0,0,1-1-1V22a1,1,0,0,1,2,0v4A1,1,0,0,1,46,27Zm0-8H42a1,1,0,0,1,0-2h4a1,1,0,0,1,0,2Zm-8,0H34a1,1,0,0,1,0-2h4a1,1,0,0,1,0,2Z" fill="#252b33"/></g></svg>