<?xml version="1.0" encoding="UTF-8" standalone="no"?> <svg width="24" height="24" viewBox="0 0 24 24" fill="none" xmlns="http://www.w3.org/2000/svg">
<path d="M23 4V21C23 21.5304 22.7893 22.0391 22.4142 22.4142C22.0391 22.7893 21.5304 23 21 23H3C2.46957 23 1.96086 22.7893 1.58579 22.4142C1.21071 22.0391 1 21.5304 1 21V2C1 1.73478 1.10536 1.48043 1.29289 1.29289C1.48043 1.10536 1.73478 1 2 1H20L23 4Z" fill="#626D91"/>
<path d="M19 23H5V14C5 13.7348 5.10536 13.4804 5.29289 13.2929C5.48043 13.1054 5.73478 13 6 13H18C18.2652 13 18.5196 13.1054 18.7071 13.2929C18.8946 13.4804 19 13.7348 19 14V23ZM6 1V7C6.00079 7.26497 6.1064 7.51887 6.29377 7.70623C6.48113 7.8936 6.73503 7.99921 7 8H17C17.265 7.99921 17.5189 7.8936 17.7062 7.70623C17.8936 7.51887 17.9992 7.26497 18 7V1H6Z" fill="#E0E2E9"/>
</svg>
